<svg id="Layer_1" data-name="Layer 1" xmlns="http://www.w3.org/2000/svg" viewBox="0 0 400 300" width="406" height="306" class="illustration"><title>_</title><path d="M333.27,138.85c-9.32-32.62-28.14-53.67-59.61-60.48-43.55-9.42-98.61-9.93-140.75-.44-15.7,3.53-31.47,10.12-42.38,22.88-20.24,23.65-25.7,75.79-6.45,101.9,8.57,11.62,22.89,16,36.38,18.59,51.34,10,104,4.45,156,.32,12.06-1,24.62-2,35-8.7C333.58,198.73,340.47,164.05,333.27,138.85Z" fill="#dddbdb" opacity="0.18"></path><path d="M173.76,101.32c-3.55,1.67-8.11,1.32-10.42-2.24s-1.61-10,1.24-13c1.4-1.46,3.5-2,5.5-2.22,3.44-.43,6.94-.26,10.36-.84s6.9-2.09,8.78-5c3.55-5.53-6.77-5.26-9.57-5.59-5.51-.66-11.35-1.36-15.89-4.85-1.86-1.43-3.52-3.82-2.64-6s3.49-2.75,5.72-3.29a36.43,36.43,0,0,0,10.09-4.13c.66-.39,1.38-.95,1.32-1.71s-.71-1.14-1.31-1.48a55.89,55.89,0,0,0-11.7-4.92c-2.76-.81-5.64-1.43-8.06-3a4.81,4.81,0,0,1-2.48-3.48c-.14-2.74,3.2-4.14,5.9-4.63a97.18,97.18,0,0,1,14.84-1.5c6.1-.15,12.44.35,17.76,3.33,2.5,1.39,4.93,3.95,4.26,6.73-.77,3.17-5.28,5-4.73,8.24A122.69,122.69,0,0,1,220,58.82c3,1.15,7.57,2.48,7.83,6,.23,3.27-2.57,6.59-5.16,8.18-3.32,2-7.32,2.59-11.2,2.9a10.65,10.65,0,0,0-4.2.9,3.41,3.41,0,0,0-2,3.51c.45,2,3.21,2.93,3.55,5,.28,1.7-1.27,3.12-2.78,3.94-5.76,3.14-12.73,2.65-19.28,2.28-2.08-.12-4.37-.15-6,1.15s-2.12,3.45-3.17,5.21A9,9,0,0,1,173.76,101.32Z" fill="#dddbdb" opacity="0.3"></path><polygon points="247.32 127.52 245.28 146.68 244.6 153.07 237.85 216.37 234.4 248.79 165.6 248.79 162.15 216.37 159.98 196.03 155.4 153.07 152.68 127.52 247.32 127.52" fill="#3b82f6"></polygon><polygon points="155.4 153.07 162.15 216.37 237.85 216.37 244.6 153.07 155.4 153.07" fill="#fff" opacity="0.3"></polygon><circle cx="200" cy="187.77" r="16.09" fill="#ffd200"></circle><path d="M247.32,127.52l-2,19.16c-19.48,3.59-38.67,9.51-55.4,20A95.23,95.23,0,0,0,160,196l-4.58-43-2.72-25.55Z" opacity="0.1"></path><path d="M252.3,121.67a2.74,2.74,0,0,0-2.74-2.66H246.3l-2.57-12.94H198L185.05,95.52a7.61,7.61,0,0,0-4.8-1.71H164.93a7.57,7.57,0,0,0-7.43,6.1L153.7,119h-3.26a2.74,2.74,0,0,0-2.74,2.66l-.21,6.42a2.75,2.75,0,0,0,2.75,2.83h99.52a2.75,2.75,0,0,0,2.75-2.83Z" fill="#24285b"></path><rect x="89.3" y="248.65" width="221.4" height="9.93" rx="4.97" fill="#e6e6e6"></rect><path d="M274.83,239.45v.1a5.84,5.84,0,0,1-.37,2c-1.49,4-7.33,7.07-14.3,7.07-8,0-14.53-4-14.66-8.94a.86.86,0,0,1,0-.16,5.65,5.65,0,0,1,.36-2c1.46-4.07,7.31-7.11,14.31-7.11C268.21,230.45,274.74,234.48,274.83,239.45Z" fill="#e6e6e6"></path><path d="M274.83,239.45v.1a5.84,5.84,0,0,1-.37,2,35.59,35.59,0,0,1-10.52,1c-3.22-.32-6.5-2.39-10.93-3.21a16.57,16.57,0,0,0-7.51.37.86.86,0,0,1,0-.16,5.65,5.65,0,0,1,.36-2,18.07,18.07,0,0,1,5-.46,18.67,18.67,0,0,1,5.13,1c1.86.63,3.63,1.52,5.53,2,4,1.09,8.21.39,12.16-.39Z" opacity="0.05"></path><path d="M152.68,239.45v.1a5.84,5.84,0,0,1-.37,2c-1.49,4-7.33,7.07-14.3,7.07-8,0-14.53-4-14.66-8.94a.86.86,0,0,1,0-.16,5.65,5.65,0,0,1,.36-2c1.46-4.07,7.31-7.11,14.31-7.11C146.06,230.45,152.59,234.48,152.68,239.45Z" fill="#e6e6e6"></path><path d="M152.68,239.45v.1a5.84,5.84,0,0,1-.37,2,35.59,35.59,0,0,1-10.52,1c-3.22-.32-6.5-2.39-10.93-3.21a16.57,16.57,0,0,0-7.51.37.86.86,0,0,1,0-.16,5.65,5.65,0,0,1,.36-2,18.07,18.07,0,0,1,5-.46,18.67,18.67,0,0,1,5.13,1c1.86.63,3.63,1.52,5.53,2,4,1.09,8.21.39,12.16-.39Z" opacity="0.05"></path><path d="M299.86,245.57l-.05.09a5.94,5.94,0,0,1-1.35,1.56c-3.33,2.75-9.89,2.42-15.91-1.1-6.92-4-10.55-10.76-8.16-15.11l.07-.14a5.74,5.74,0,0,1,1.32-1.54c3.31-2.78,9.89-2.45,15.94,1.07C298.67,234.46,302.28,241.23,299.86,245.57Z" fill="#e6e6e6"></path><path d="M300.53,245.57l0,.09a5.94,5.94,0,0,1-1.35,1.56,35.57,35.57,0,0,1-9.57-4.46c-3.16-2.28-4.91-5.77-7.82-8.28a16.65,16.65,0,0,0-6.68-3.47l.07-.14a5.74,5.74,0,0,1,1.32-1.54,18,18,0,0,1,4.53,2.12,18.6,18.6,0,0,1,3.95,3.4c1.29,1.48,2.37,3.14,3.75,4.55,2.88,2.94,6.9,4.47,10.7,5.79Z" opacity="0.05"></path></svg>