<svg id="Layer_1" data-name="Layer 1" xmlns="http://www.w3.org/2000/svg" viewBox="0 0 400 300" width="406" height="306" class="illustration"><title>_</title><path d="M333.27,133.28C324,98.59,305.13,76.2,273.66,69c-43.55-10-98.61-10.56-140.75-.47-15.7,3.76-31.47,10.76-42.38,24.33C70.29,118,64.83,173.41,84.08,201.18c8.57,12.36,22.89,17,36.38,19.77,51.34,10.6,104,4.73,156,.33,12.06-1,24.62-2.13,35-9.24C333.58,196.94,340.47,160.06,333.27,133.28Z" fill="#dddbdb" opacity="0.18"></path><path d="M210.54,81.29c.58-1,15.54-31.87,15-33.39s-6.05-3.07-4.76-8.08,5.43-7.32,10.55-3.17,4.22,8.49,4.22,8.49,6.65-5.36,11.32.34-.7,9.08-4.23,9.83a10.32,10.32,0,0,1-6.4-.76s-13,24.63-16.86,33.31L211,82.12Z" fill="#ccc"></path><path d="M192.57,150.26c-9.73-1.35-18.3-7.46-23.91-15.37-3-4.28-3.38-9.75-2.34-15a37.42,37.42,0,0,1,4.06-10.9c4.59-8.28,12-14.68,20.09-19.63a86,86,0,0,0,9.62-6.24,21,21,0,0,0,4-4.19,33.72,33.72,0,0,0,2.51-5.37,6.3,6.3,0,0,1,1.07-1.78,3.91,3.91,0,0,1,4.2-.67,7.63,7.63,0,0,1,3.31,3,14.63,14.63,0,0,1,2.19,5.32c2.58-1.22,5.62-1,8.39-.34,1.32.33,2.78.93,3.23,2.22a3.66,3.66,0,0,1-.41,2.82c-.7,1.39-1.74,2.58-2.51,3.93-2.21,3.93-1.15,7.9-.18,12,.3,1.25.59,2.52.85,3.79a42.76,42.76,0,0,1,.9,14.72,44.2,44.2,0,0,1-3.27,10.79C218.82,142.46,208,152.4,192.57,150.26Z" fill="#ffd200"></path><path d="M192.57,150.26c-9.73-1.35-18.3-7.46-23.91-15.37-3-4.28-3.38-9.75-2.34-15a46.16,46.16,0,0,0,5.41,5.24c4,3.41,8.31,6.69,13.34,8.22,11,3.31,22.94-2.65,30.5-11.26,4.85-5.53,7.85-11.92,11.18-18.29a42.76,42.76,0,0,1,.9,14.72,44.2,44.2,0,0,1-3.27,10.79C218.82,142.46,208,152.4,192.57,150.26Z" opacity="0.1"></path><path d="M181.68,106.39a14.53,14.53,0,0,0-2.8,5.22c-1.12,4.47,1.46,9.38,5.48,11.63s9.11,2.07,13.32.21a25.45,25.45,0,0,0,10.26-9,12,12,0,0,0,2.1-4.3c1.24-6-3.72-14.66-10.19-14.88C193.05,95,185.54,101.44,181.68,106.39Z" fill="#fff" opacity="0.3"></path><path d="M256.5,96.73c.58-1,15.53-31.87,14.94-33.39s-6-3.07-4.76-8.08,5.43-7.33,10.55-3.18,4.22,8.5,4.22,8.5,6.65-5.36,11.32.33-.69,9.08-4.23,9.84a10.3,10.3,0,0,1-6.4-.77s-13,24.64-16.86,33.32l-8.37-5.74Z" fill="#ccc"></path><path d="M238.52,165.7c-9.72-1.36-18.3-7.46-23.9-15.37-3-4.28-3.39-9.76-2.34-15.05a37.74,37.74,0,0,1,4.05-10.89c4.6-8.28,12-14.68,20.09-19.63a86.13,86.13,0,0,0,9.63-6.24,21,21,0,0,0,4-4.19A34.62,34.62,0,0,0,252.57,89a5.87,5.87,0,0,1,1.07-1.78,3.9,3.9,0,0,1,4.19-.68,7.54,7.54,0,0,1,3.31,3,14.66,14.66,0,0,1,2.19,5.31,12.63,12.63,0,0,1,8.39-.34c1.32.34,2.78.94,3.24,2.22a3.73,3.73,0,0,1-.41,2.83c-.7,1.39-1.75,2.58-2.51,3.93-2.22,3.93-1.16,7.9-.18,12,.29,1.26.59,2.53.85,3.8a42.76,42.76,0,0,1,.89,14.72,44.31,44.31,0,0,1-3.26,10.79C264.78,157.9,253.91,167.83,238.52,165.7Z" fill="#ffd200"></path><path d="M238.52,165.7c-9.72-1.36-18.3-7.46-23.9-15.37-3-4.28-3.39-9.76-2.34-15.05a44.71,44.71,0,0,0,5.41,5.25c4,3.4,8.3,6.69,13.33,8.22,11,3.31,22.94-2.65,30.5-11.26,4.85-5.53,7.85-11.92,11.19-18.29a42.76,42.76,0,0,1,.89,14.72,44.31,44.31,0,0,1-3.26,10.79C264.78,157.9,253.91,167.83,238.52,165.7Z" opacity="0.1"></path><path d="M227.63,121.83a14.35,14.35,0,0,0-2.79,5.22c-1.12,4.47,1.46,9.38,5.47,11.63s9.11,2.06,13.33.2a25.4,25.4,0,0,0,10.25-9,12,12,0,0,0,2.1-4.31c1.24-6-3.72-14.65-10.18-14.87C239,110.48,231.5,116.88,227.63,121.83Z" fill="#fff" opacity="0.3"></path><path d="M150.61,92.16c-.2-1.13-8.87-34.32-10.31-35.1s-6.59,1.6-8.87-3.05-.62-9.1,6-9.27,8.72,3.73,8.72,3.73,1.58-8.4,8.83-7.1,5.37,7.36,3.17,10.22a10.31,10.31,0,0,1-5.37,3.58s6.1,27.18,8.81,36.29l-10.1,1.07Z" fill="#ccc"></path><path d="M181.72,156.29c-8.27,5.28-18.76,6.21-28.16,3.83-5.09-1.29-8.91-5.22-11.55-9.93a37.7,37.7,0,0,1-4-10.92c-1.88-9.28-.39-19,2.54-28a86.1,86.1,0,0,0,3.27-11,21.22,21.22,0,0,0,.33-5.79,35.37,35.37,0,0,0-1.58-5.71,6,6,0,0,1-.34-2A3.89,3.89,0,0,1,145,83.52a7.64,7.64,0,0,1,4.44.1,14.75,14.75,0,0,1,5.12,2.63,12.6,12.6,0,0,1,6.16-5.71c1.22-.6,2.72-1.09,3.9-.41a3.66,3.66,0,0,1,1.52,2.41c.37,1.51.35,3.1.65,4.62.86,4.43,4.25,6.76,7.64,9.23,1,.77,2.09,1.54,3.11,2.34a42.81,42.81,0,0,1,10.24,10.61,44.5,44.5,0,0,1,4.52,10.33C196.63,133.31,194.81,147.92,181.72,156.29Z" fill="#ffd200"></path><path d="M181.72,156.29c-8.27,5.28-18.76,6.21-28.16,3.83-5.09-1.29-8.91-5.22-11.55-9.93a44.06,44.06,0,0,0,7.52.48c5.26,0,10.66-.3,15.48-2.41,10.49-4.59,15.73-16.9,15.89-28.36.09-7.36-1.77-14.16-3.37-21.17a42.81,42.81,0,0,1,10.24,10.61,44.5,44.5,0,0,1,4.52,10.33C196.63,133.31,194.81,147.92,181.72,156.29Z" opacity="0.1"></path><path d="M145,130a14.32,14.32,0,0,0,1.26,5.79c2.05,4.12,7.2,6.18,11.71,5.29s8.27-4.35,10.27-8.5a25.39,25.39,0,0,0,2-13.5,12.07,12.07,0,0,0-1.2-4.63c-2.92-5.34-12.34-8.74-17.4-4.71C146.23,114,144.68,123.72,145,130Z" fill="#fff" opacity="0.3"></path><polygon points="272 136.92 268.81 170.68 264.18 219.7 262.27 239.93 260.99 253.47 139.01 253.47 135.82 219.7 131.19 170.68 128 136.92 272 136.92" fill="#10b981"></polygon><polygon points="268.81 170.68 264.18 219.7 135.82 219.7 131.19 170.68 268.81 170.68" fill="#fff" opacity="0.3"></polygon><circle cx="200" cy="195.19" r="20.37" opacity="0.1"></circle><path d="M262.27,239.93,261,253.47H139l-3.19-33.77-4.63-49L128,136.92h14.94c2.06,6,3.81,12.23,6,18,7.25,19.47,20.93,36.14,37.25,49s35.24,22.06,54.7,29.33A181.57,181.57,0,0,0,262.27,239.93Z" opacity="0.1"></path><path d="M179.47,225.58c1.14.28,35.9,6,37.23,5s1.25-6.85,6.56-7.05,8.8,3.21,6.2,9.46-7.13,6.64-7.13,6.64,7.22,5,3,11.24-9.14,2-10.91-1.3a10.6,10.6,0,0,1-1.12-6.52s-28-5.62-37.71-6.88l3.21-9.93Z" fill="#ccc"></path><path d="M106.33,228c-1.51-10,2-20.19,8.16-28,3.32-4.23,8.61-6.17,14.12-6.69a38.56,38.56,0,0,1,11.91.82c9.5,2.11,18,7.55,25.19,14a88.1,88.1,0,0,0,8.94,7.66,21.61,21.61,0,0,0,5.3,2.72,35.25,35.25,0,0,0,6,.91A6.08,6.08,0,0,1,188,220a4,4,0,0,1,1.89,3.93A7.75,7.75,0,0,1,188,228a15,15,0,0,1-4.6,3.7,12.88,12.88,0,0,1,2.78,8.16c.06,1.4-.1,3-1.24,3.83a3.78,3.78,0,0,1-2.9.42c-1.57-.28-3-1-4.6-1.32-4.51-1-8.12,1.17-11.85,3.32-1.15.66-2.32,1.32-3.49,1.94a43.85,43.85,0,0,1-14.23,5.18,45.73,45.73,0,0,1-11.57-.07C121.66,251.57,108.71,243.77,106.33,228Z" fill="#ffd200"></path><path d="M106.33,228c-1.51-10,2-20.19,8.16-28,3.32-4.23,8.61-6.17,14.12-6.69a46.56,46.56,0,0,0-3.58,6.86c-2.19,4.93-4.16,10.12-4.2,15.52-.07,11.76,9.29,21.81,20,26.74,6.87,3.16,14,4.25,21.27,5.68a43.85,43.85,0,0,1-14.23,5.18,45.73,45.73,0,0,1-11.57-.07C121.66,251.57,108.71,243.77,106.33,228Z" opacity="0.1"></path><path d="M146.33,204.49a14.59,14.59,0,0,0-6-1.23c-4.72.2-8.81,4.17-9.85,8.78s.63,9.57,3.68,13.17a26.22,26.22,0,0,0,11.85,7.48,12.29,12.29,0,0,0,4.85.81c6.23-.52,13.35-7.94,11.68-14.37C160.83,212.37,152.34,206.85,146.33,204.49Z" fill="#fff" opacity="0.3"></path><rect x="120.72" y="130.92" width="158.55" height="11.99" rx="6" fill="#10b981"></rect><rect x="120.72" y="130.92" width="158.55" height="11.99" rx="6" fill="#fff" opacity="0.3"></rect><rect x="89.85" y="253.47" width="218.3" height="9.02" rx="4.51" fill="#24285b"></rect></svg>