<svg xmlns="http://www.w3.org/2000/svg" viewBox="0 0 400 300" width="406" height="306" class="illustration"><g id="_434_american_pancake_flatline" data-name="#434_american_pancake_flatline"><path d="M324.32,199.32c0,15.76-55.66,33.59-124.32,33.59S75.68,215.08,75.68,199.32,131.34,170.8,200,170.8,324.32,183.57,324.32,199.32Z" fill="#231f20"></path><path d="M200,233.45c-64.18,0-124.86-16.59-124.86-34.13C75.14,183,130,170.26,200,170.26S324.86,183,324.86,199.32C324.86,216.86,264.18,233.45,200,233.45Zm0-62.11c-33.17,0-64.34,3-87.79,8.34-22.87,5.25-36,12.41-36,19.64,0,7.45,13.46,15.74,36,22.19,24.52,7,55.69,10.86,87.76,10.86s63.24-3.86,87.76-10.86c22.56-6.45,36-14.74,36-22.19,0-7.23-13.12-14.39-36-19.64C264.34,174.3,233.17,171.34,200,171.34Z" fill="#231f20"></path><ellipse cx="200" cy="194.5" rx="131.97" ry="28.52" fill="#fff"></ellipse><path d="M200,223.52c-35.29,0-68.46-3-93.42-8.36-25.19-5.45-39-12.78-39-20.66s13.86-15.21,39.05-20.66c25-5.39,58.13-8.36,93.42-8.36s68.46,3,93.42,8.36c25.19,5.45,39.05,12.78,39.05,20.66s-13.86,15.21-39.05,20.66C268.46,220.55,235.29,223.52,200,223.52Zm0-57c-35.22,0-68.32,3-93.21,8.34-24.32,5.26-38.26,12.43-38.26,19.68s13.94,14.42,38.26,19.68c24.89,5.38,58,8.34,93.21,8.34s68.32-3,93.21-8.34c24.32-5.26,38.26-12.43,38.26-19.68s-13.94-14.42-38.26-19.68C268.32,169.44,235.22,166.48,200,166.48Z" fill="#231f20"></path><path d="M200,218.7c-65.53,0-116.86-10.63-116.86-24.2S134.47,170.3,200,170.3s116.86,10.63,116.86,24.2S265.53,218.7,200,218.7Zm0-47.4c-31.05,0-60.23,2.46-82.18,6.93-21.4,4.36-33.68,10.29-33.68,16.27s12.28,11.91,33.68,16.27c22,4.47,51.13,6.93,82.18,6.93s60.23-2.46,82.18-6.93c21.4-4.36,33.68-10.29,33.68-16.27s-12.28-11.91-33.68-16.27C260.23,173.76,231.05,171.3,200,171.3Z" fill="#d1d3d4"></path><path d="M109.12,176.4s-6.57,4.82-3.69,12.86,21.77,11.66,37,12.86,77.57-2.41,101.68,0,49.61,0,50.33-5.63-5.41-17.1-5.41-17.1S114.34,173.18,109.12,176.4Z" fill="#e6e7e8"></path><path d="M262.86,203.55c-6.12,0-12.55-.31-18.75-.93-14-1.4-40.42-.78-63.78-.23-16.87.4-31.45.74-37.89.23-10.14-.8-34.07-3.69-37.48-13.19-3-8.29,3.79-13.38,3.86-13.43l0,0c5.3-3.25,173.1,2.66,180.24,2.92a.49.49,0,0,1,.43.26c.25.47,6.19,11.69,5.46,17.41C294.4,201.19,279.82,203.55,262.86,203.55ZM219,200.77c10,0,18.91.22,25.25.85,24.48,2.45,49.14-.12,49.78-5.19s-4.34-14.84-5.22-16.56c-48.72-1.72-174.91-5.6-179.38-3.05a10.78,10.78,0,0,0-3.49,12.27c3.3,9.21,28.86,11.92,36.61,12.53,6.4.51,21,.17,37.8-.23C193.11,201.09,206.85,200.77,219,200.77Z" fill="#231f20"></path><path d="M116,166.75s-10.85,4.83-6.83,9.65,33.36,9.24,47.82,6.83,57.08-6.49,70.74-3.84,23.72,4.8,28.94,4.52,4-2.69,11.25-2.69,17.89,7.18,21.21-1.83-45-21.47-88.38-18.86S116,166.75,116,166.75Z" fill="#fff"></path><path d="M255.65,184.43c-4.72,0-12.43-1.5-22.83-3.54l-5.23-1c-13.46-2.6-56.14,1.44-70.56,3.84s-44.08-1.94-48.3-7a3.81,3.81,0,0,1-.91-3.42c.9-3.84,7.64-6.88,7.93-7a.44.44,0,0,1,.15-.05c.42,0,41.9-3.64,84.77-6.22a232.51,232.51,0,0,1,56.14,3.88c16.83,3.29,28.8,7.85,32,12.19a3.54,3.54,0,0,1,.7,3.46c-2.46,6.68-8.86,5-14.51,3.49a30.4,30.4,0,0,0-7.16-1.33c-3.88,0-5.23.71-6.54,1.39a9.8,9.8,0,0,1-4.68,1.3C256.33,184.43,256,184.43,255.65,184.43ZM214.26,178a79.22,79.22,0,0,1,13.52.87l5.23,1c11.09,2.17,19.1,3.74,23.58,3.5a9,9,0,0,0,4.27-1.18c1.42-.74,2.88-1.51,7-1.51a31,31,0,0,1,7.42,1.36c5.75,1.53,11.17,3,13.32-2.87a2.58,2.58,0,0,0-.58-2.52c-5.87-7.9-47.32-18.07-87.3-15.66-41.91,2.52-82.51,6-84.65,6.21-.73.34-6.55,3.12-7.28,6.29a2.81,2.81,0,0,0,.7,2.55c4.28,5.14,34.72,8.77,47.36,6.66C168.29,180.83,195.84,178,214.26,178Z" fill="#231f20"></path><path d="M106.29,148.21s-4.44,9.74,0,18.15,24.53,14.16,39.4,12.83,44.61-4.42,64.71-4.86,64.31,5.75,73.15.44S288,154,288,154s-129.82-17-150.72-17S106.29,148.21,106.29,148.21Z" fill="#e6e7e8"></path><path d="M141.26,179.88c-14,0-31.15-5.21-35.42-13.29-4.49-8.53-.19-18.18,0-18.59a.47.47,0,0,1,.09-.12c.1-.12,10.45-11.39,31.33-11.39,20.69,0,149.49,16.81,150.79,17a.51.51,0,0,1,.41.36c.19.65,4.42,15.92-4.64,21.37-5.84,3.5-26.06,2.16-45.6.85-10.64-.71-20.7-1.38-27.8-1.22-16.52.36-40,2.56-55.52,4-3.42.32-6.52.61-9.15.84C144.3,179.82,142.8,179.88,141.26,179.88Zm-34.55-31.39c-.38.89-4,9.92,0,17.64s23.36,14,38.92,12.57l9.15-.85c15.54-1.46,39-3.66,55.59-4,7.15-.16,17.22.51,27.88,1.22,18.49,1.24,39.45,2.64,45-.71,7.74-4.65,4.84-17.72,4.28-19.92-7.34-1-130.21-16.93-150.32-16.93C117.59,137.49,107.52,147.64,106.71,148.49Z" fill="#231f20"></path><path d="M116.35,137s-13.7,5-10.06,11.22,23.73,15,47,11.51,66.72-4.87,78.37-4.87,53.86,8,56.27-.88-5.18-11.82-10.45-14.61S125.65,131.16,116.35,137Z" fill="#fff"></path><path d="M142.74,161c-18.11,0-33.47-6.73-36.88-12.55a4.44,4.44,0,0,1-.41-3.92c1.63-4.53,9.9-7.71,10.68-8,6.06-3.61,59.56-2.66,82.33-2.09,35.93.91,76.36,2.93,79.29,4.48l1.38.71c5.18,2.66,11.64,6,9.32,14.47-1.87,6.86-24.1,4.45-42,2.51-6.24-.67-11.63-1.26-14.77-1.26-13.17,0-55.8,1.45-78.3,4.86A70.89,70.89,0,0,1,142.74,161Zm16.4-26c-22.35,0-39.7.67-42.52,2.44l-.1.05c-.08,0-8.62,3.21-10.13,7.42a3.49,3.49,0,0,0,.33,3.08c3.35,5.71,22.81,14.87,46.53,11.27,22.55-3.43,65.26-4.88,78.45-4.88,3.19,0,8.61.59,14.88,1.27,15.64,1.69,39.26,4.25,40.91-1.79,2.1-7.71-3.7-10.69-8.82-13.31-.47-.24-.94-.48-1.38-.72C273.64,137.87,205.6,135,159.14,135Zm-42.79,2h0Z" fill="#231f20"></path><path d="M104,120.55s-.45,9.74,1.43,15.49,14.54,12.61,33,14.83,73.55-.44,87.61,0,40.2-.89,51.45-1.77,11.25-.89,12.86-4,0-10.18,0-10.18Z" fill="#e6e7e8"></path><path d="M163,152.26c-10.12,0-19-.22-24.63-.9-14.38-1.72-31-7.62-33.44-15.17-1.89-5.77-1.47-15.26-1.46-15.67a.53.53,0,0,1,.17-.35.5.5,0,0,1,.37-.12l186.38,14.39a.49.49,0,0,1,.45.38c.07.3,1.63,7.3,0,10.52s-2,3.37-13.27,4.26c-10.4.81-37.05,2.22-51.5,1.77-4.91-.16-14.89.07-26.45.33C187.9,152,174.66,152.26,163,152.26Zm-58.54-31.17c-.06,2.07-.17,9.94,1.42,14.79,1.74,5.34,13.76,12.24,32.61,14.49,12,1.44,39.2.82,61.07.33,11.57-.26,21.57-.49,26.5-.33,14.41.46,41-1,51.39-1.77,11-.86,11-.86,12.46-3.72,1.3-2.51.32-8,0-9.48Z" fill="#231f20"></path><path d="M114.74,114.57s-13.48,1.33-10.25,8,44.42,14.16,73,14.16,106.11,1.33,112.94-1.77-6.43-12.39-18.89-14.16S119.66,111.52,114.74,114.57Z" fill="#fff"></path><path d="M236.86,137.49c-12.54,0-25.61-.09-37.3-.17-8.8-.06-16.39-.12-22.12-.12-27.75,0-69.91-7.27-73.4-14.44a4.2,4.2,0,0,1-.06-4c2-3.58,9.62-4.53,10.62-4.63,7.17-3.27,147.41,4.83,157,6.18s20.52,7.5,21.15,11.93c.14,1-.12,2.28-2.12,3.19C286.83,137.09,263,137.49,236.86,137.49Zm-110-23.17c-6.8,0-11.15.21-11.9.68a.57.57,0,0,1-.22.07c-.08,0-8.09.84-9.93,4.14a3.17,3.17,0,0,0,.08,3.11c3,6.23,43,13.88,72.5,13.88,5.73,0,13.33.06,22.13.12,33.94.23,85.24.59,90.61-1.84,1.17-.53,1.67-1.23,1.54-2.14-.52-3.65-10.46-9.68-20.3-11.07C259.39,119.56,161.47,114.32,126.91,114.32Zm-12.17.25h0Z" fill="#231f20"></path><path d="M105.43,102.18c.07.72-4.35,7.52-1.94,12.39s16.88,9.74,36.37,14.39,67.73-.84,81.39,1,59.49,4.78,68.73,0,2-19.83,2-19.83Z" fill="#e6e7e8"></path><path d="M265.44,133.06a407,407,0,0,1-44.26-2.58c-5.41-.74-16.24-.32-28.78.17-19.16.75-40.88,1.6-52.65-1.21-22.47-5.35-34.48-10.14-36.71-14.64-2-4,.32-9,1.42-11.49a9.71,9.71,0,0,0,.47-1.13.47.47,0,0,1,.14-.37.44.44,0,0,1,.38-.13l186.56,8a.49.49,0,0,1,.43.28c.07.16,7.34,15.54-2.23,20.49C286.44,132.37,276.66,133.06,265.44,133.06Zm-52.8-4a69.91,69.91,0,0,1,8.68.4c13.51,1.84,59.3,4.78,68.43.06,8.05-4.17,2.81-16.89,1.91-18.91L105.82,102.7c-.09.23-.24.55-.45,1-1,2.3-3.19,7.08-1.43,10.63,2.06,4.16,14.18,8.91,36,14.12,11.64,2.78,33.29,1.93,52.38,1.18C200,129.35,207.07,129.08,212.64,129.08Z" fill="#231f20"></path><path d="M112.73,98.86s-11.24,2-5.82,7.3,39.58,12.4,64.91,10.63,51.84-2.22,68.32-2.22S288,116.79,292,110.15,275.51,100,268.28,98.86,118.56,91.56,112.73,98.86Z" fill="#fff"></path><path d="M163.47,117.56a185.07,185.07,0,0,1-31.66-2.94c-12.81-2.29-22.49-5.39-25.25-8.1-1.38-1.35-1.89-2.65-1.51-3.88.87-2.83,6.37-4,7.43-4.24,3.26-3.12,29.32-4.2,77.51-3.19,36.54.76,74.45,2.56,78.36,3.16,10,1.52,22.26,4.26,24.34,8.7a3.41,3.41,0,0,1-.27,3.34c-3.42,5.65-24.7,5.19-41.8,4.82-3.81-.08-7.41-.16-10.48-.16-11,0-39.74.22-68.29,2.22C169.21,117.47,166.4,117.56,163.47,117.56Zm-4.23-21.72c-24.6,0-44.13.85-46.12,3.33a.45.45,0,0,1-.3.18c-1.68.3-6.18,1.53-6.81,3.59-.26.83.16,1.8,1.25,2.87,5.24,5.14,39.1,12.26,64.52,10.48,28.58-2,57.33-2.22,68.36-2.22,3.08,0,6.69.08,10.51.16,16,.35,37.79.81,40.91-4.34a2.39,2.39,0,0,0,.22-2.39c-1.47-3.16-9.85-6-23.58-8.15C262.66,98.51,203,95.84,159.24,95.84Zm-46.51,3h0Z" fill="#231f20"></path><path d="M106.91,85.77c1-4-1.81,8.89,0,14.2s32,14.6,71.34,12.39,65.51-4,81.18-2.66,27.33-3.09,33-7.52.4-10.62.4-10.62Z" fill="#e6e7e8"></path><path d="M166.47,113.19c-33.22,0-58.27-7.88-60-13.06-1.29-3.81-.3-11.25.08-14.07a.52.52,0,0,1-.09-.42c.22-.85.31-1.2.8-1.11s.43.2.39.76l185.2,5.77a.47.47,0,0,1,.36.18c.11.12,2.65,3.18,2.3,6.65a6.78,6.78,0,0,1-2.77,4.68c-5.8,4.56-17.59,9-33.31,7.63-13.89-1.17-35.58.06-68.41,1.94l-12.71.72C174.25,113.09,170.3,113.19,166.47,113.19Zm-59-26.91c-.38,2.81-1.32,10-.11,13.53,1.59,4.67,30.76,14.3,70.84,12l12.7-.72c32.88-1.88,54.6-3.12,68.56-1.93,15.42,1.3,26.95-3,32.6-7.42a5.82,5.82,0,0,0,2.39-4c.27-2.62-1.43-5.09-1.93-5.75Z" fill="#231f20"></path><path d="M270.69,78.72s-61.09-1.33-82.4-2.21-74.35-1.77-80.38,5.31,16.48,14.61,32.15,13.72,57.08-3.1,73.15-3.1,72,4,79.58-.88S280.35,79.28,270.69,78.72Z" fill="#fff"></path><path d="M137.6,96.11c-12,0-27.91-4.37-30.75-10.09a3.91,3.91,0,0,1,.68-4.52c7.07-8.31,73.26-5.8,80.78-5.49,21.06.87,81.78,2.2,82.39,2.21h0c7.38.43,22.9,5.34,24.18,10.26.24.91.11,2.26-1.84,3.5-5.79,3.69-37.67,2.45-60.94,1.54-7.92-.31-14.76-.58-18.91-.58-17.39,0-64,2.58-73.12,3.1C139.29,96.09,138.45,96.11,137.6,96.11ZM159.12,76.4c-23.27,0-47,1.29-50.83,5.74a2.91,2.91,0,0,0-.54,3.44c2.6,5.23,19.5,10.18,32.29,9.46,9.16-.52,55.75-3.1,73.17-3.1,4.17,0,11,.27,18.95.58,21.83.85,54.83,2.14,60.36-1.38,1.75-1.12,1.49-2.09,1.41-2.41-1.07-4.11-15.69-9.07-23.26-9.51-1,0-61.41-1.34-82.4-2.21C179.88,76.66,169.55,76.4,159.12,76.4Z" fill="#231f20"></path><path d="M147.42,72.68a39.4,39.4,0,0,0-8.1,2.89c-4,2-20.43,10.94-10.79,15.55,1.88.9,4,1.13,5.92,1.95,6,2.56,8.06,11.37,3.86,16.34-.93,1.1-2.08,2-3,3.13-3.27,4.23-2,10.27-.62,15.43a6.13,6.13,0,0,0-4.62,4.58c0,9.38.64,18.74,1.19,28.09.48,8.06,2.06,15.58-1.2,23.27A20.33,20.33,0,0,1,125,191.3c-4.63,4.08-20.54.62-22,7.32a4.83,4.83,0,0,0,2.09,4.64,12.78,12.78,0,0,0,5,1.93,93.06,93.06,0,0,0,17.19,2.18c-1,1.43-.18,3.54,1.25,4.53a9.8,9.8,0,0,0,5,1.29c4.07.29,8.16.47,12.24.55a18,18,0,0,0,5.44-.49c14.47-4.29,28.51-3.19,43.7-4.41,5.57-.45,11.82-1.42,15.12-5.94-4.28-2.6-9.62-2.48-14.63-2.47a197.46,197.46,0,0,1-37.35-3.51c-2.81-.54-5.69-1.17-8.07-2.77-4.11-2.75-6-8-6-12.94s1.89-9.73,1.76-14.8c-.07-3.13-3.23-12.08.85-13.91,1.94-.87,3.92,1.11,6,1.48,3.08.54,5.7-2.69,6-5.8s-.75-6.2-1.14-9.31c-.6-4.9,2.36-7.7,3.92-11.92,2-5.38,2.35-11.55,3.29-17.19.9-5.45,2.73-12,8.08-13.36,7.32-1.89,14.28,7.9,21.38,5.29,2.2-.81,3.8-2.68,5.57-4.23,4.43-3.88,11-6.69,16.71-7.9,8.39-1.78,11.73,2.86,10.92,11.23-.41,4.19-1.51,8.46-.51,12.55a4.94,4.94,0,0,0,1.44,2.67c2.38,2,6-.88,6.56-3.92s-.59-6.15-.24-9.22c.27-2.35,2.5-5,4.6-3.91,1.81.94,1.58,3.54,1.14,5.52a138.52,138.52,0,0,0-1.88,51A10.66,10.66,0,0,0,240,160a3.79,3.79,0,0,0,4.08,1.7,4.68,4.68,0,0,0,2.1-1.72c3.46-4.51,3.87-10.58,4.39-16.25a201.44,201.44,0,0,1,4.57-28c1-4,2.26-8.3,4.77-11.65,3.35-4.47,7.72-3.34,11.35-6.56,4.57-4.06,3.22-11.8-.53-16.63-8.09-10.4-23-12-36.14-12.21a498.85,498.85,0,0,0-51.87,1.87C171.08,71.5,158.79,69.91,147.42,72.68Z" fill="#EC4899"></path><path d="M146.91,214.25h-1.14c-4.08-.08-8.21-.26-12.27-.55a10.19,10.19,0,0,1-5.24-1.38,4.25,4.25,0,0,1-1.75-4.47A93.81,93.81,0,0,1,110,205.67a13.19,13.19,0,0,1-5.16-2,5.35,5.35,0,0,1-2.27-5.15c.9-4.19,6.7-4.72,12.32-5.23,3.91-.35,8-.72,9.82-2.36a19.69,19.69,0,0,0,4.93-7.21c2.59-6.11,2.07-12.11,1.52-18.47-.13-1.51-.26-3-.35-4.57l-.19-3.16c-.5-8.17-1-16.62-1-25,0,0,0-.07,0-.11a6.71,6.71,0,0,1,4.5-4.83c-1.49-5.59-2.34-11.27.84-15.37a17.47,17.47,0,0,1,1.65-1.78c.45-.44.91-.9,1.32-1.38a10.45,10.45,0,0,0-3.67-15.55,21.15,21.15,0,0,0-2.73-.87,18.51,18.51,0,0,1-3.22-1.09c-2.17-1-3.27-2.38-3.28-4,0-5.38,12.63-11.73,14.07-12.44a40.54,40.54,0,0,1,8.2-2.93c7.16-1.74,14.76-1.77,22.11-1.8,4.37,0,8.89,0,13.21-.41a497.55,497.55,0,0,1,51.93-1.88c13.46.22,28.33,1.87,36.52,12.4,3.93,5,5.22,13.1.47,17.31a13.71,13.71,0,0,1-5.2,2.66c-2.21.74-4.29,1.44-6.08,3.83-2.55,3.39-3.8,7.69-4.69,11.46a200.8,200.8,0,0,0-4.55,28l-.07.72c-.5,5.58-1,11.35-4.43,15.79a5.1,5.1,0,0,1-2.33,1.88,4.3,4.3,0,0,1-4.65-1.89,10.89,10.89,0,0,1-1.49-4.69,138,138,0,0,1,1.88-51.19c.6-2.68.31-4.35-.87-5a1.79,1.79,0,0,0-1.72,0,4.81,4.81,0,0,0-2.16,3.47,19,19,0,0,0,.16,4.25,17.79,17.79,0,0,1,.08,5,6.48,6.48,0,0,1-3.88,4.71,3.4,3.4,0,0,1-3.49-.5,5.19,5.19,0,0,1-1.61-2.94c-.78-3.17-.33-6.44.1-9.61.15-1,.29-2.07.39-3.09.43-4.46-.37-7.74-2.32-9.49-1.75-1.56-4.44-2-8-1.21-6.18,1.31-12.49,4.3-16.48,7.79-.4.35-.78.71-1.17,1.07a14,14,0,0,1-4.55,3.24c-3.85,1.42-7.63-.59-11.28-2.53C179.8,97.84,176.36,96,173,96.89c-5.21,1.34-6.9,8-7.71,13-.25,1.52-.47,3.12-.67,4.66A58.84,58.84,0,0,1,162,127.13a29.27,29.27,0,0,1-1.76,3.73c-1.3,2.44-2.53,4.75-2.13,7.95.12,1,.33,2.05.53,3.06a20.57,20.57,0,0,1,.61,6.36,7.87,7.87,0,0,1-2.94,5.28,4.71,4.71,0,0,1-3.7,1,10,10,0,0,1-2.41-.88c-1.24-.59-2.31-1.09-3.31-.63-2.69,1.2-1.74,6.33-1.05,10.08a23.54,23.54,0,0,1,.49,3.36,36.52,36.52,0,0,1-.88,7.75,39.28,39.28,0,0,0-.88,7.07c0,5.33,2.18,10.12,5.75,12.52,2.27,1.52,5,2.14,7.88,2.69a196.84,196.84,0,0,0,36.89,3.5h1c4.94,0,10.06,0,14.3,2.54a.51.51,0,0,1,.23.33.52.52,0,0,1-.08.4c-3.35,4.57-9.43,5.65-15.49,6.14-4.54.37-9,.53-13.34.68-10.37.37-20.16.72-30.25,3.71A15.24,15.24,0,0,1,146.91,214.25Zm-16.3-81.65c0,8.29.51,16.71,1,24.85l.19,3.16c.09,1.54.23,3,.35,4.54.56,6.49,1.09,12.61-1.59,18.95a20.73,20.73,0,0,1-5.19,7.58c-2.1,1.84-6.13,2.21-10.39,2.6-5.26.48-10.69,1-11.44,4.44a4.36,4.36,0,0,0,1.89,4.14,12.58,12.58,0,0,0,4.79,1.84,92.72,92.72,0,0,0,17.09,2.17.5.5,0,0,1,.4.78c-.82,1.18-.08,3,1.12,3.84a9.31,9.31,0,0,0,4.74,1.2c4,.29,8.15.47,12.22.55a17.35,17.35,0,0,0,5.29-.47c10.22-3,20.07-3.38,30.5-3.75,4.32-.15,8.78-.31,13.3-.68,5.62-.45,11.23-1.42,14.42-5.29-3.92-2.15-8.68-2.14-13.3-2.12h-.59A198,198,0,0,1,158,197.41c-3-.57-5.83-1.21-8.26-2.84-3.9-2.62-6.21-7.61-6.19-13.36a39.71,39.71,0,0,1,.9-7.24,36.4,36.4,0,0,0,.86-7.55,22.15,22.15,0,0,0-.47-3.2c-.75-4.07-1.79-9.65,1.62-11.18,1.43-.64,2.81,0,4.15.64a9,9,0,0,0,2.15.81,3.83,3.83,0,0,0,2.93-.78,6.91,6.91,0,0,0,2.54-4.59,19.38,19.38,0,0,0-.59-6.05c-.2-1-.41-2.08-.54-3.14-.44-3.51.86-6,2.23-8.54a28,28,0,0,0,1.72-3.61,59.07,59.07,0,0,0,2.58-12.41c.2-1.55.42-3.16.67-4.69.86-5.19,2.67-12.27,8.45-13.76,3.76-1,7.38,1,10.88,2.81s7,3.75,10.46,2.49a13.13,13.13,0,0,0,4.22-3c.39-.37.79-.74,1.19-1.09,4.11-3.6,10.6-6.67,16.94-8,3.88-.82,6.86-.34,8.86,1.45,2.23,2,3.13,5.46,2.65,10.32-.1,1-.24,2.09-.38,3.13-.43,3.08-.86,6.26-.13,9.25a4.26,4.26,0,0,0,1.27,2.4,2.44,2.44,0,0,0,2.51.33,5.48,5.48,0,0,0,3.24-3.94,16.3,16.3,0,0,0-.09-4.72,20.2,20.2,0,0,1-.16-4.47,5.83,5.83,0,0,1,2.69-4.24,2.75,2.75,0,0,1,2.64-.06c1.64.85,2.11,2.89,1.39,6.07A137.29,137.29,0,0,0,239,155.41a9.89,9.89,0,0,0,1.33,4.27,3.28,3.28,0,0,0,3.5,1.51,4.17,4.17,0,0,0,1.86-1.54c3.23-4.21,3.74-9.83,4.23-15.27l.06-.72a202.82,202.82,0,0,1,4.58-28.13c.86-3.64,2.19-8.27,4.86-11.83,2-2.64,4.31-3.42,6.56-4.18a12.8,12.8,0,0,0,4.85-2.45c4.32-3.84,3.06-11.27-.59-16-7.93-10.19-22.52-11.79-35.75-12A498.09,498.09,0,0,0,182.71,71c-4.37.39-8.91.41-13.3.42-7.29,0-14.83.06-21.87,1.78h0a38.58,38.58,0,0,0-8,2.85C134.86,78.31,126,83.67,126,87.56c0,1.21.92,2.25,2.71,3.11a18.31,18.31,0,0,0,3.06,1,23.6,23.6,0,0,1,2.85.92,11.46,11.46,0,0,1,4,17.12c-.44.52-.93,1-1.39,1.45a16.18,16.18,0,0,0-1.56,1.67c-3,3.87-2,9.49-.54,15a.49.49,0,0,1-.05.39.52.52,0,0,1-.33.23A5.68,5.68,0,0,0,130.61,132.6Zm16.81-59.92h0Z" fill="#231f20"></path><polygon points="168.17 69.69 168.17 77.38 181.47 83.87 233.23 76.78 233.23 69.69 168.17 69.69" fill="#e6e7e8"></polygon><path d="M181.47,84.37a.59.59,0,0,1-.22-.05L168,77.83a.5.5,0,0,1-.28-.45V69.69a.5.5,0,0,1,.5-.5h65.06a.5.5,0,0,1,.5.5v7.09a.51.51,0,0,1-.43.5l-51.76,7.09Zm-12.8-7.3,12.88,6.28,51.18-7V70.19H168.67Z" fill="#231f20"></path><polygon points="168.17 69.69 213.16 60.35 233.23 69.69 180.97 78.34 168.17 69.69" fill="#fff"></polygon><path d="M181,78.85a.49.49,0,0,1-.28-.09l-12.8-8.65a.51.51,0,0,1,.18-.91l45-9.34a.48.48,0,0,1,.31,0l20.07,9.34a.5.5,0,0,1,.29.52.51.51,0,0,1-.42.43l-52.26,8.65Zm-11.54-8.91,11.66,7.88,50.46-8.36L213.1,60.87Z" fill="#231f20"></path><path d="M181.47,84.37a.5.5,0,0,1-.5-.45l-.5-5.53a.5.5,0,0,1,.46-.54.49.49,0,0,1,.54.45l.5,5.53a.51.51,0,0,1-.45.54Z" fill="#231f20"></path><path d="M203.59,129.1c-5,.48-17.38.5-19.29,6.16-1.45,4.27.67,11.9,1.25,16.23a8,8,0,0,0,1.16,3.77,2.88,2.88,0,0,0,3.49,1.11c1.22-.66,2.14-2.55,3.4-2,.77.35.87,1.39.84,2.24l-.32,12.49a12.88,12.88,0,0,0,.65,5.5c.74,1.71,2.49,3.14,4.34,2.87,2.75-.39,3.72-3.82,4.08-6.58L205.37,154a9.61,9.61,0,0,0-.15-4.59c-.58-1.55-1.91-2.68-3-4s-1.87-3-1.2-4.57c1.16-2.64,5.58-2.24,6.93-4.79a3.85,3.85,0,0,0-1.27-4.58,9.13,9.13,0,0,0-4.82-1.61A31.59,31.59,0,0,0,189.52,131" fill="#EC4899"></path><path d="M198.66,178a5.09,5.09,0,0,1-4.35-3.2,13.43,13.43,0,0,1-.69-5.71l.32-12.49c0-1-.15-1.6-.55-1.78s-.86.13-1.63.88a6.44,6.44,0,0,1-1.32,1.08,3.38,3.38,0,0,1-4.13-1.25,8.43,8.43,0,0,1-1.26-4c-.14-1-.37-2.28-.61-3.6-.78-4.23-1.75-9.5-.62-12.86.72-2.12,2.75-3.49,5.3-4.4a.55.55,0,0,1,.26-.18,33.47,33.47,0,0,1,4.91-1.05c2.43-.37,4.89-.55,6.88-.69l2.37-.18a.5.5,0,0,1,.55.45.49.49,0,0,1-.45.54h-.1a8.11,8.11,0,0,1,3.49,1.49c1.42,1.14,2.39,3.35,1.41,5.21-.76,1.41-2.26,2-3.72,2.55s-2.7,1-3.2,2.2c-.69,1.57.56,3.35,1.13,4,.27.34.57.67.87,1a10.05,10.05,0,0,1,2.17,3.12,10.2,10.2,0,0,1,.18,4.83l-2.19,17c-.54,4.24-2.1,6.66-4.5,7Zm-5.53-24.24a1.58,1.58,0,0,1,.68.15c1.19.54,1.15,2.18,1.13,2.71l-.32,12.5a12.55,12.55,0,0,0,.61,5.29c.63,1.45,2.15,2.81,3.81,2.57,2.41-.35,3.32-3.54,3.65-6.15l2.19-17a9.27,9.27,0,0,0-.13-4.35,9,9,0,0,0-2-2.79c-.31-.34-.62-.68-.91-1-.68-.83-2.18-3-1.27-5.08.68-1.54,2.24-2.15,3.76-2.73,1.35-.52,2.62-1,3.19-2.09a3.37,3.37,0,0,0-1.15-4,8.7,8.7,0,0,0-4.56-1.51,31.28,31.28,0,0,0-7.61.13c-4.32.68-8.47,2-9.46,4.93-1.05,3.11-.11,8.24.65,12.36.25,1.33.48,2.59.62,3.65a7.58,7.58,0,0,0,1.08,3.54,2.4,2.4,0,0,0,2.84,1,5.58,5.58,0,0,0,1.1-.91A3.29,3.29,0,0,1,193.13,153.79Z" fill="#231f20"></path><path d="M161.57,96.11h0a100.78,100.78,0,0,1-20.91-3.84.5.5,0,1,1,.3-1,99.8,99.8,0,0,0,20.68,3.79.51.51,0,0,1,.47.54A.5.5,0,0,1,161.57,96.11Z" fill="#fff"></path><path d="M140.77,172.56a.59.59,0,0,1-.22-.05.51.51,0,0,1-.24-.67c1.72-3.65,0-13.47,0-13.57a.5.5,0,0,1,1-.17c.07.41,1.81,10.23,0,14.17A.51.51,0,0,1,140.77,172.56Z" fill="#fff"></path><path d="M247.71,200.38a7.4,7.4,0,0,0-3.58,1.12,2.71,2.71,0,0,0-1,3.33c.57,1,1.84,1.3,3,1.51l10.18,1.85c3.83.69,22.78,2,16.13-5.93C268.36,197.4,252.8,199.75,247.71,200.38Z" fill="#EC4899"></path><path d="M263.87,209.22a53.54,53.54,0,0,1-7.66-.54L246,206.83c-1.26-.23-2.65-.57-3.32-1.75a3.17,3.17,0,0,1,1.12-4,7.91,7.91,0,0,1,3.82-1.22h0l1-.13c6-.77,20.12-2.59,24.11,2.19,1.5,1.79,1.89,3.31,1.18,4.54C272.72,208.66,268.11,209.22,263.87,209.22Zm-16.09-8.34a7,7,0,0,0-3.36,1,2.25,2.25,0,0,0-.85,2.69c.47.8,1.6,1.07,2.64,1.26l10.18,1.84c3.43.63,15,1.29,16.73-1.71.48-.83.12-2-1.08-3.4-3.64-4.36-17.86-2.53-23.21-1.84Z" fill="#231f20"></path><path d="M255,106.71a.4.4,0,0,1-.15,0,.49.49,0,0,1-.32-.63c1.22-3.72,7.08-10.48,7.33-10.77a.5.5,0,0,1,.71,0,.49.49,0,0,1,0,.7c-.06.07-6,6.89-7.13,10.42A.5.5,0,0,1,255,106.71Z" fill="#fff"></path><path d="M200.7,161h-.07a.5.5,0,0,1-.43-.56l.19-1.3c.56-3.77.63-4.43-.11-5.57a.49.49,0,0,1,.15-.69.5.5,0,0,1,.69.14c1,1.5.82,2.51.26,6.27l-.19,1.29A.5.5,0,0,1,200.7,161Z" fill="#fff"></path><path d="M144.69,77.28a.49.49,0,0,1-.43-.24.5.5,0,0,1,.17-.69c4-2.38,12.5-3.4,12.86-3.44a.48.48,0,0,1,.55.44.5.5,0,0,1-.44.55c-.08,0-8.68,1-12.46,3.31A.47.47,0,0,1,144.69,77.28Z" fill="#fff"></path><path d="M151.17,209.23a.5.5,0,0,1-.13-1l.32-.08a72.19,72.19,0,0,1,13.48-2.32.51.51,0,0,1,.54.46.5.5,0,0,1-.46.54,71.63,71.63,0,0,0-13.3,2.28l-.33.09Z" fill="#fff"></path></g></svg>