<svg xmlns="http://www.w3.org/2000/svg" viewBox="0 0 400 300" width="406" height="306" class="illustration"><g id="_432_sushi_roll_flatline" data-name="#432_sushi_roll_flatline"><rect x="51.99" y="127.08" width="295.5" height="107.72" rx="14.63" fill="#231f20"></rect><path d="M332.86,235.34H66.61a15.18,15.18,0,0,1-15.16-15.17V141.71a15.18,15.18,0,0,1,15.16-15.17H332.86A15.18,15.18,0,0,1,348,141.71v78.46A15.18,15.18,0,0,1,332.86,235.34ZM66.61,127.62a14.11,14.11,0,0,0-14.09,14.09v78.46a14.11,14.11,0,0,0,14.09,14.09H332.86A14.11,14.11,0,0,0,347,220.17V141.71a14.11,14.11,0,0,0-14.09-14.09Z" fill="#231f20"></path><rect x="52.52" y="119.57" width="295.5" height="107.72" rx="14.63" fill="#fff"></rect><path d="M333.39,227.79H67.14A15.13,15.13,0,0,1,52,212.67V134.2a15.14,15.14,0,0,1,15.12-15.13H333.39a15.14,15.14,0,0,1,15.12,15.13v78.47A15.13,15.13,0,0,1,333.39,227.79ZM67.14,120.07A14.14,14.14,0,0,0,53,134.2v78.47a14.13,14.13,0,0,0,14.12,14.12H333.39a14.13,14.13,0,0,0,14.12-14.12V134.2a14.14,14.14,0,0,0-14.12-14.13Z" fill="#231f20"></path><path d="M324.85,218.75H75.68a13.39,13.39,0,0,1-13.37-13.37V141.49a13.38,13.38,0,0,1,13.37-13.37H324.85a13.38,13.38,0,0,1,13.37,13.37v63.89A13.39,13.39,0,0,1,324.85,218.75ZM75.68,129.12a12.39,12.39,0,0,0-12.37,12.37v63.89a12.39,12.39,0,0,0,12.37,12.37H324.85a12.39,12.39,0,0,0,12.37-12.37V141.49a12.39,12.39,0,0,0-12.37-12.37Z" fill="#d1d3d4"></path><path d="M216.66,176.19V100.73c0-9.38,4.51-21,6.76-21.77s5.26-1.13,6.38-2.63,3.38-4.13,6.76-4.88,6,.94,10.51-2.81,10.14-2.82,15.77-2.82,7.7,3,12.2,1.5,8.82-3,11.26-1.5,5.82,5.82,9.58,6.76,6.13.37,9,3.19,4.35,6,6.79,7.13,4.88,2.63,5.64,5.45,0,85.21,0,87.28-4.7,2.44-5.64,3.75-3.81,7.7-6.79,8.45-6.16,0-8.79,1.69-6,5.63-10.69,5.25-11.27-1.63-15.21,0-10.32,1.34-14.26,0-9-3.4-12.58-3-9.2-2.63-12.2-5.82-8.07-3.94-10.33-5.25A14.89,14.89,0,0,1,216.66,176.19Z" fill="#231f20"></path><path d="M263.45,196.46a25.4,25.4,0,0,1-7.73-1.15l-1.8-.63c-3.57-1.26-7.62-2.68-10.54-2.37-3.82.4-9.63-2.77-12.65-6-1.93-2-4.82-3.07-7.14-3.89a20,20,0,0,1-3.07-1.27,15.18,15.18,0,0,1-4.32-4.7.5.5,0,0,1-.07-.27V100.73c0-9,4.37-21.36,7.12-22.28.6-.2,1.25-.37,1.91-.55,1.72-.46,3.49-.93,4.21-1.89,2.1-2.8,4.48-4.51,7.07-5.08a14.29,14.29,0,0,1,3.12-.25,9.37,9.37,0,0,0,7.17-2.46c3.91-3.25,8.68-3.12,13.3-3,.93,0,1.87,0,2.81,0a18.14,18.14,0,0,1,6,1.13c2,.66,3.64,1.19,6,.4l.35-.11c4.51-1.51,8.77-2.93,11.37-1.34a24.19,24.19,0,0,1,2.93,2.38c2,1.75,4.17,3.74,6.49,4.32,1,.25,1.94.39,2.82.53,2.27.35,4.23.65,6.4,2.8a35,35,0,0,1,2.91,3.37c1.26,1.62,2.36,3,3.73,3.65,2.47,1.14,5.11,2.72,5.92,5.8.46,1.7.48,28.9,0,83.14,0,2.49,0,4,0,4.28,0,1.6-1.88,2.31-3.55,3a5.88,5.88,0,0,0-2.18,1.12c-.19.26-.49.8-.84,1.42-1.39,2.46-3.71,6.59-6.25,7.23a18.83,18.83,0,0,1-3.54.44,10.21,10.21,0,0,0-5.1,1.18c-.59.39-1.25.91-2,1.46-2.35,1.86-5.29,4.18-9.08,3.88-1-.08-2-.19-3.11-.31-4.14-.46-8.84-1-11.84.29A18.3,18.3,0,0,1,263.45,196.46Zm-19.23-5.27c3,0,6.73,1.31,10.05,2.48l1.8.62c3.79,1.29,10,1.65,13.88,0,3.26-1.37,8.11-.84,12.38-.37,1.08.12,2.12.23,3.08.31,3.37.27,6.12-1.91,8.32-3.65.72-.57,1.4-1.11,2-1.52a11.15,11.15,0,0,1,5.62-1.36,17.72,17.72,0,0,0,3.33-.4c2.1-.53,4.37-4.56,5.58-6.72.38-.67.68-1.21.91-1.52a6,6,0,0,1,2.67-1.5c1.34-.51,2.86-1.08,2.86-1.94,0-.26,0-1.8,0-4.29.52-66.5.28-81.77,0-82.86-.71-2.64-3.1-4-5.34-5.09-1.61-.74-2.78-2.23-4.13-4a35.61,35.61,0,0,0-2.81-3.28c-1.93-1.9-3.56-2.15-5.81-2.5-.86-.13-1.85-.28-2.92-.55-2.58-.65-4.9-2.72-6.95-4.56A21.29,21.29,0,0,0,286,66.28c-2.16-1.33-6.19,0-10.46,1.44l-.35.11c-2.69.9-4.62.27-6.66-.39a17.15,17.15,0,0,0-5.71-1.08c-.95,0-1.9,0-2.84,0-4.62-.13-9-.26-12.58,2.74a10.44,10.44,0,0,1-7.86,2.71,12.81,12.81,0,0,0-2.88.22c-2.34.52-4.51,2.09-6.45,4.67-.94,1.26-2.9,1.79-4.8,2.29-.63.17-1.26.34-1.84.53-1.74.58-6.39,11.43-6.39,21.26V176a13.84,13.84,0,0,0,3.86,4.19,18.12,18.12,0,0,0,2.89,1.18c2.43.87,5.46,1.94,7.56,4.17,2.79,3,8.3,6,11.75,5.66A7.52,7.52,0,0,1,244.22,191.19Z" fill="#231f20"></path><path d="M219.48,101.67a3,3,0,0,1,3.38,1.88c1.13,2.44,2.44,8.07,4.69,9.2s7.51.75,10.7,3,10.32,6.19,13.52,6.19,6.19-2.81,9.57,0,5.82,3.2,8.07,2.44,7.88-2.81,11.45-3.19,4.51.94,6.95.38,2.06-2.44,4.69-3.19,3.19,0,6-2.07,5.45-6,8.83-7.13,4.69-1.5,6.38-5.44,4.19-9.82,0-16.15-18.63-19-46.57-19S224.36,82.19,221.92,86.4,217.6,97.35,219.48,101.67Z" fill="#fff"></path><polygon points="242.99 87.59 244.4 75.77 263.33 70.84 272.18 74.79 255.52 93.92 242.99 87.59" fill="#10b981"></polygon><path d="M255.52,94.42a.49.49,0,0,1-.23-.06L242.77,88a.51.51,0,0,1-.28-.5l1.41-11.83a.52.52,0,0,1,.37-.43l18.94-4.92a.53.53,0,0,1,.33,0l8.84,4a.49.49,0,0,1,.29.35.52.52,0,0,1-.11.43L255.9,94.24A.49.49,0,0,1,255.52,94.42Zm-12-7.11,11.87,6,16-18.31-8.07-3.61-18.44,4.8Z" fill="#231f20"></path><polygon points="253.88 79.16 272.18 74.79 270.32 98.18 250.08 94.89 253.88 79.16" fill="#231f20"></polygon><path d="M270.32,98.72h-.09L250,95.42a.52.52,0,0,1-.36-.23.59.59,0,0,1-.08-.43L253.35,79a.55.55,0,0,1,.4-.39l18.3-4.37a.53.53,0,0,1,.48.12.51.51,0,0,1,.18.45l-1.85,23.38a.56.56,0,0,1-.21.38A.5.5,0,0,1,270.32,98.72Zm-19.59-4.27,19.1,3.1,1.75-22.06L254.32,79.6Z" fill="#231f20"></path><polygon points="276.73 93.92 263.33 80.69 285.44 77.46 297.38 92.14 276.73 93.92" fill="#10b981"></polygon><path d="M276.73,94.42a.53.53,0,0,1-.36-.15L263,81a.5.5,0,0,1,.28-.85L285.37,77a.54.54,0,0,1,.46.18l11.94,14.69a.52.52,0,0,1,.07.51.5.5,0,0,1-.42.3l-20.65,1.77ZM264.4,81,276.91,93.4l19.48-1.68L285.23,78Z" fill="#231f20"></path><polygon points="263.33 80.69 263.33 98.76 276.89 105.69 276.73 93.92 263.33 80.69" fill="#10b981"></polygon><path d="M276.89,106.19a.46.46,0,0,1-.23,0L263.1,99.2a.51.51,0,0,1-.27-.44V80.69a.5.5,0,0,1,.31-.47.51.51,0,0,1,.54.11l13.4,13.23a.56.56,0,0,1,.15.35l.16,11.78a.51.51,0,0,1-.24.43A.48.48,0,0,1,276.89,106.19Zm-13.06-7.74,12.55,6.42-.15-10.74-12.4-12.25Z" fill="#231f20"></path><path d="M265.67,103.21a6,6,0,0,0,2.59-2.32,7,7,0,0,0-.24-6.7,20.6,20.6,0,0,0-4.53-5.29l-4.38-4.07A9.31,9.31,0,0,0,255,82.18c-2.45-.51-6.28,0-8.79.37A17.59,17.59,0,0,0,237.31,87c-2.56,2.33-4.61,6.06-3.05,9.15a7.63,7.63,0,0,0,3.43,3.09c4.67,2.42,9.94,2.27,14.81,3.92a25.34,25.34,0,0,0,11,.74A7.8,7.8,0,0,0,265.67,103.21Z" fill="#fff"></path><path d="M259.76,104.68a24.7,24.7,0,0,1-7.42-1.05,43,43,0,0,0-6.09-1.42,30.48,30.48,0,0,1-8.79-2.53,7.9,7.9,0,0,1-3.64-3.32c-1.65-3.25.4-7.24,3.15-9.74a18.18,18.18,0,0,1,9.11-4.56c2.73-.45,6.5-.88,9-.37a9.78,9.78,0,0,1,4.39,2.78l4.38,4.07A21.41,21.41,0,0,1,268.47,94a7.55,7.55,0,0,1,.23,7.19,6.47,6.47,0,0,1-2.81,2.52h0a8.81,8.81,0,0,1-2.28.73A23.43,23.43,0,0,1,259.76,104.68Zm-7.44-22.22a40.58,40.58,0,0,0-6.08.58,17.26,17.26,0,0,0-8.6,4.32c-2.47,2.25-4.34,5.77-2.93,8.55a7,7,0,0,0,3.21,2.88,29.88,29.88,0,0,0,8.51,2.44,43.19,43.19,0,0,1,6.23,1.45,25.31,25.31,0,0,0,10.78.72,7.5,7.5,0,0,0,2-.64h0a5.46,5.46,0,0,0,2.38-2.13c1.17-2,.64-4.52-.25-6.21a20.35,20.35,0,0,0-4.43-5.15l-4.38-4.07a9,9,0,0,0-3.92-2.53A12.93,12.93,0,0,0,252.32,82.46Zm13.35,20.75h0Z" fill="#231f20"></path><polygon points="276.89 105.69 295.76 103.76 297.38 92.14 276.73 93.92 276.89 105.69" fill="#231f20"></polygon><path d="M276.89,106.23a.57.57,0,0,1-.36-.13.55.55,0,0,1-.18-.4l-.16-11.78a.53.53,0,0,1,.49-.54l20.65-1.77a.52.52,0,0,1,.44.16.55.55,0,0,1,.14.44l-1.61,11.62a.53.53,0,0,1-.48.46l-18.88,1.94Zm.38-11.82.15,10.69,17.87-1.83,1.46-10.54Z" fill="#231f20"></path><path d="M250.08,107.3s5.6-9.79,13.32-10.62,13.14.67,16.52,2.74,5.45,8.92,5.45,8.92-9.2.65-15.58,1.59S250.08,107.3,250.08,107.3Z" fill="#10b981"></path><path d="M267.29,110.59c-6.78,0-16.86-2.67-17.34-2.8a.49.49,0,0,1-.31-.73c.24-.41,5.82-10,13.71-10.88,8.6-.92,13.9,1,16.83,2.81,3.5,2.14,5.58,8.91,5.66,9.2a.5.5,0,0,1-.06.43.52.52,0,0,1-.38.21c-.09,0-9.25.67-15.54,1.6A18.45,18.45,0,0,1,267.29,110.59ZM250.86,107c2.74.69,13.44,3.24,18.85,2.45s12.78-1.39,15-1.56c-.58-1.68-2.42-6.44-5-8-2.8-1.72-7.88-3.57-16.2-2.67C257.13,97.86,252.18,104.92,250.86,107Z" fill="#231f20"></path><path d="M255.52,108.57s3.75-8.21,9-9.15,10.51-.75,12.2,1.69,2.6,7.73,2.6,7.73S269.79,112.28,255.52,108.57Z" fill="#fff"></path><path d="M268.61,110.8a52.56,52.56,0,0,1-13.22-1.75.49.49,0,0,1-.32-.69c.15-.34,3.92-8.46,9.37-9.43,6.35-1.13,11.09-.43,12.7,1.89,1.73,2.51,2.64,7.72,2.68,7.94a.5.5,0,0,1-.32.55A34.79,34.79,0,0,1,268.61,110.8Zm-12.37-2.56c12,3,20.6.83,22.51.26-.25-1.29-1.1-5.18-2.43-7.11s-5.84-2.52-11.7-1.48C260.44,100.66,257.17,106.43,256.24,108.24Z" fill="#231f20"></path><path d="M237.69,97.18a.51.51,0,0,1-.42-.77c.28-.44,7-10.88,17.29-13a.5.5,0,1,1,.19,1c-9.89,2-16.57,12.42-16.63,12.53A.51.51,0,0,1,237.69,97.18Z" fill="#d1d3d4"></path><path d="M253.88,79.66a.47.47,0,0,1-.17,0l-9.48-3.39a.49.49,0,0,1-.3-.64.5.5,0,0,1,.64-.3l9.48,3.39a.5.5,0,0,1-.17,1Z" fill="#231f20"></path><path d="M243.83,97.18a.5.5,0,0,1-.3-.11.5.5,0,0,1-.09-.7c4.18-5.32,14.37-9.58,15.48-8.75a.51.51,0,0,1,.1.7.51.51,0,0,1-.59.16c-1.23-.09-10.19,3.4-14.2,8.51A.53.53,0,0,1,243.83,97.18Z" fill="#d1d3d4"></path><path d="M249.14,98a.53.53,0,0,1-.27-.08.51.51,0,0,1-.16-.69c2.79-4.44,12.54-5.49,13-5.54a.5.5,0,0,1,.55.45.5.5,0,0,1-.44.55c-.1,0-9.68,1-12.21,5.07A.48.48,0,0,1,249.14,98Z" fill="#d1d3d4"></path><path d="M238.29,109.92a1.15,1.15,0,0,0-.52.31.81.81,0,0,0,.31,1.13,2.1,2.1,0,0,0,1.29.15c1.35-.17,4.36-.8,4.89-2.19C243,108.22,239.68,109.41,238.29,109.92Z" fill="#d1d3d4"></path><path d="M271.82,115.19a1.57,1.57,0,0,0-.53.73,1.08,1.08,0,0,0,.81,1.19,2.49,2.49,0,0,0,1.54-.16c1.05-.39,4.24-2.07,2.87-3.37S272.73,114.37,271.82,115.19Z" fill="#d1d3d4"></path><path d="M310.1,94.83a2.07,2.07,0,0,0,1.15-.5.94.94,0,0,0,.18-1.16,1.3,1.3,0,0,0-.82-.44c-.89-.23-6.55-.83-5.88.81C305.2,94.68,309.11,95,310.1,94.83Z" fill="#d1d3d4"></path><path d="M300,81.62c.7-.29,1.49-.8,1.45-1.56a1.28,1.28,0,0,0-.83-1,2.68,2.68,0,0,0-1.38-.11,6.48,6.48,0,0,0-5.12,3.69C295.83,83.25,298.43,82.26,300,81.62Z" fill="#d1d3d4"></path><path d="M281.47,72.29a.9.9,0,0,0,.2-.83c-.13-.29-.53-.36-.85-.35-1.81,0-4,1.46-4.14,3.38a.86.86,0,0,0,.34.86.71.71,0,0,0,.43,0C279,75.15,280.65,73.51,281.47,72.29Z" fill="#d1d3d4"></path><path d="M288.13,113.31c-.35.39-.7,1-.42,1.4a1,1,0,0,0,.63.38,2.93,2.93,0,0,0,2.57-.82c.66-.6,2.78-3.27,1.55-3.9S288.77,112.61,288.13,113.31Z" fill="#d1d3d4"></path><path d="M233.13,81.18a3.21,3.21,0,0,0-2,1,1.34,1.34,0,0,0,.23,2,1.73,1.73,0,0,0,1,.12,9.88,9.88,0,0,0,2.36-.66c.76-.27,3.77-.86,3.23-1.9S234,81,233.13,81.18Z" fill="#d1d3d4"></path><path d="M230,98.87c1.7-.71.49-1.8-.76-2a5.44,5.44,0,0,0-1.8,0,14.69,14.69,0,0,0-1.84.39c-2,.57-.2,2.15,1,2.23A8.19,8.19,0,0,0,230,98.87Z" fill="#d1d3d4"></path><path d="M259.74,114.69c.62,0,1.37.24,1.53.84a1.08,1.08,0,0,1-.63,1.15,2.81,2.81,0,0,1-1.38.21c-1.71,0-4-.32-5.17-1.75C255.08,114.11,258.37,114.56,259.74,114.69Z" fill="#d1d3d4"></path><path d="M305.72,103.41c.95-.31,5.33-1.33,2.6-2.36a8.06,8.06,0,0,0-5.53.41,3.17,3.17,0,0,0-1.2.8c-.53.65-.53,1.65.43,1.78A8.63,8.63,0,0,0,305.72,103.41Z" fill="#d1d3d4"></path><path d="M109.11,176.19V100.73c0-9.38,4.5-21,6.76-21.77s5.25-1.13,6.38-2.63,3.38-4.13,6.75-4.88,6,.94,10.52-2.81,10.13-2.82,15.76-2.82,7.7,3,12.2,1.5,8.83-3,11.27-1.5,5.82,5.82,9.57,6.76,6.13.37,9,3.19,4.35,6,6.79,7.13,4.88,2.63,5.63,5.45,0,85.21,0,87.28-4.69,2.44-5.63,3.75-3.82,7.7-6.79,8.45-6.16,0-8.79,1.69-6,5.63-10.7,5.25-11.26-1.63-15.21,0-10.32,1.34-14.26,0-9-3.4-12.58-3-9.2-2.63-12.2-5.82-8.07-3.94-10.32-5.25A14.74,14.74,0,0,1,109.11,176.19Z" fill="#231f20"></path><path d="M155.89,196.46a25.29,25.29,0,0,1-7.72-1.15l-1.81-.63c-3.57-1.26-7.61-2.68-10.54-2.37-3.82.4-9.63-2.77-12.65-6-1.92-2-4.82-3.07-7.14-3.89a19.43,19.43,0,0,1-3.06-1.27,15.13,15.13,0,0,1-4.33-4.7.6.6,0,0,1-.07-.27V100.73c0-9,4.38-21.36,7.13-22.28.59-.2,1.24-.37,1.9-.55,1.72-.46,3.5-.93,4.22-1.89,2.09-2.8,4.47-4.51,7.07-5.08a14.16,14.16,0,0,1,3.11-.25,9.37,9.37,0,0,0,7.17-2.46c3.91-3.25,8.68-3.12,13.3-3,.94,0,1.87,0,2.81,0a18.09,18.09,0,0,1,6,1.13c2,.66,3.64,1.19,6,.4l.35-.11c4.52-1.51,8.78-2.93,11.37-1.34A23.44,23.44,0,0,1,182,67.74c1.95,1.75,4.17,3.74,6.49,4.32,1,.25,1.94.39,2.83.53,2.26.35,4.22.65,6.4,2.8a36.23,36.23,0,0,1,2.9,3.37c1.27,1.62,2.36,3,3.73,3.65,2.47,1.14,5.11,2.72,5.93,5.8.45,1.7.47,28.9,0,83.14,0,2.49,0,4,0,4.28,0,1.6-1.89,2.31-3.55,3a5.94,5.94,0,0,0-2.19,1.12c-.18.26-.49.8-.84,1.42-1.38,2.46-3.7,6.59-6.25,7.23a18.83,18.83,0,0,1-3.54.44A10.14,10.14,0,0,0,188.8,190c-.6.39-1.26.91-2,1.46-2.35,1.86-5.29,4.18-9.07,3.88-1-.08-2-.19-3.11-.31-4.15-.46-8.84-1-11.85.29A18.27,18.27,0,0,1,155.89,196.46Zm-19.23-5.27c3,0,6.74,1.31,10.06,2.48l1.79.62c3.79,1.29,10,1.65,13.89,0,3.25-1.37,8.1-.84,12.37-.37,1.08.12,2.12.23,3.08.31,3.37.27,6.12-1.91,8.33-3.65a24.91,24.91,0,0,1,2-1.52,11.11,11.11,0,0,1,5.61-1.36,17.83,17.83,0,0,0,3.34-.4c2.09-.53,4.36-4.56,5.58-6.72.38-.67.68-1.21.9-1.52a6,6,0,0,1,2.67-1.5c1.34-.51,2.86-1.08,2.86-1.94,0-.26,0-1.8,0-4.29.52-66.5.28-81.77,0-82.86-.71-2.64-3.09-4-5.34-5.09-1.6-.74-2.77-2.23-4.13-4a34.13,34.13,0,0,0-2.81-3.28c-1.92-1.9-3.55-2.15-5.81-2.5-.86-.13-1.84-.28-2.92-.55-2.58-.65-4.9-2.72-6.95-4.56a22,22,0,0,0-2.77-2.26c-2.17-1.33-6.2,0-10.47,1.44l-.35.11c-2.68.9-4.62.27-6.66-.39a17,17,0,0,0-5.71-1.08c-.95,0-1.89,0-2.84,0-4.62-.13-9-.26-12.58,2.74A10.41,10.41,0,0,1,132,71.76a12.81,12.81,0,0,0-2.88.22c-2.34.52-4.5,2.09-6.44,4.67-1,1.26-2.91,1.79-4.8,2.29-.64.17-1.27.34-1.84.53-1.75.58-6.39,11.43-6.39,21.26V176a13.84,13.84,0,0,0,3.86,4.19,18,18,0,0,0,2.88,1.18c2.43.87,5.46,1.94,7.56,4.17,2.79,3,8.31,6,11.76,5.66A7.36,7.36,0,0,1,136.66,191.19Z" fill="#231f20"></path><path d="M111.92,101.67a3,3,0,0,1,3.38,1.88c1.13,2.44,2.44,8.07,4.69,9.2s7.51.75,10.7,3,10.33,6.19,13.52,6.19,6.19-2.81,9.57,0,5.82,3.2,8.07,2.44,7.89-2.81,11.45-3.19,4.51.94,6.95.38,2.06-2.44,4.69-3.19,3.19,0,6-2.07,5.44-6,8.82-7.13,4.69-1.5,6.38-5.44,4.19-9.82,0-16.15-18.62-19-46.57-19S116.8,82.19,114.36,86.4,110.05,97.35,111.92,101.67Z" fill="#fff"></path><polygon points="135.43 87.59 136.84 75.77 155.78 70.84 164.62 74.79 147.96 93.92 135.43 87.59" fill="#10b981"></polygon><path d="M148,94.42a.46.46,0,0,1-.22-.06L135.21,88a.48.48,0,0,1-.27-.5l1.4-11.83a.53.53,0,0,1,.38-.43l18.93-4.92a.53.53,0,0,1,.33,0l8.85,4a.48.48,0,0,1,.28.35.52.52,0,0,1-.11.43L148.34,94.24A.49.49,0,0,1,148,94.42Zm-12-7.11,11.87,6L163.8,75l-8.07-3.61-18.43,4.8Z" fill="#231f20"></path><polygon points="146.32 79.16 164.62 74.79 162.76 98.18 142.52 94.89 146.32 79.16" fill="#231f20"></polygon><path d="M162.76,98.72h-.08l-20.25-3.29a.53.53,0,0,1-.43-.66L145.8,79a.53.53,0,0,1,.4-.39l18.3-4.37a.51.51,0,0,1,.47.12.55.55,0,0,1,.19.45L163.3,98.22a.52.52,0,0,1-.21.38A.5.5,0,0,1,162.76,98.72Zm-19.58-4.27,19.09,3.1L164,75.49,146.77,79.6Z" fill="#231f20"></path><polygon points="169.17 93.92 155.78 80.69 177.88 77.46 189.82 92.14 169.17 93.92" fill="#10b981"></polygon><path d="M169.17,94.42a.51.51,0,0,1-.35-.15L155.42,81a.5.5,0,0,1-.12-.51.51.51,0,0,1,.4-.34L177.81,77a.53.53,0,0,1,.46.18l11.94,14.69a.5.5,0,0,1-.35.81l-20.65,1.77ZM156.84,81,169.36,93.4l19.48-1.68L177.67,78Z" fill="#231f20"></path><polygon points="155.78 80.69 155.78 98.76 169.33 105.69 169.17 93.92 155.78 80.69" fill="#10b981"></polygon><path d="M169.33,106.19a.46.46,0,0,1-.23,0L155.55,99.2a.49.49,0,0,1-.27-.44V80.69a.51.51,0,0,1,.3-.47.53.53,0,0,1,.55.11l13.39,13.23a.51.51,0,0,1,.15.35l.16,11.78a.51.51,0,0,1-.24.43A.48.48,0,0,1,169.33,106.19Zm-13.05-7.74,12.54,6.42-.15-10.74L156.28,81.88Z" fill="#231f20"></path><path d="M158.12,103.21a6.12,6.12,0,0,0,2.59-2.32,7.09,7.09,0,0,0-.24-6.7,20.83,20.83,0,0,0-4.54-5.29l-4.38-4.07a9.28,9.28,0,0,0-4.15-2.65c-2.46-.51-6.28,0-8.79.37A17.58,17.58,0,0,0,129.75,87c-2.56,2.33-4.6,6.06-3,9.15a7.53,7.53,0,0,0,3.43,3.09c4.67,2.42,9.94,2.27,14.8,3.92a25.34,25.34,0,0,0,11,.74A7.87,7.87,0,0,0,158.12,103.21Z" fill="#fff"></path><path d="M152.21,104.68a24.72,24.72,0,0,1-7.43-1.05,42.87,42.87,0,0,0-6.08-1.42,30.48,30.48,0,0,1-8.79-2.53,7.88,7.88,0,0,1-3.65-3.32c-1.64-3.25.4-7.24,3.15-9.74a18.22,18.22,0,0,1,9.11-4.56c2.73-.45,6.51-.88,9-.37a9.78,9.78,0,0,1,4.39,2.78l4.38,4.07A21.41,21.41,0,0,1,160.91,94a7.55,7.55,0,0,1,.23,7.19,6.47,6.47,0,0,1-2.81,2.52h0a8.57,8.57,0,0,1-2.28.73A23.31,23.31,0,0,1,152.21,104.68Zm-7.45-22.22a40.32,40.32,0,0,0-6.07.58,17.18,17.18,0,0,0-8.6,4.32c-2.48,2.25-4.34,5.77-2.94,8.55a7,7,0,0,0,3.22,2.88,29.82,29.82,0,0,0,8.5,2.44,43.19,43.19,0,0,1,6.23,1.45,25.31,25.31,0,0,0,10.78.72,7.68,7.68,0,0,0,2-.64h0a5.52,5.52,0,0,0,2.38-2.13c1.17-2,.63-4.52-.25-6.21a20.39,20.39,0,0,0-4.44-5.15l-4.38-4.07a8.87,8.87,0,0,0-3.91-2.53A13.11,13.11,0,0,0,144.76,82.46Zm13.36,20.75Z" fill="#231f20"></path><polygon points="169.33 105.69 188.21 103.76 189.82 92.14 169.17 93.92 169.33 105.69" fill="#231f20"></polygon><path d="M169.33,106.23a.59.59,0,0,1-.36-.13.55.55,0,0,1-.18-.4l-.16-11.78a.54.54,0,0,1,.49-.54l20.66-1.77a.5.5,0,0,1,.43.16.52.52,0,0,1,.14.44l-1.61,11.62a.52.52,0,0,1-.48.46l-18.88,1.94Zm.38-11.82.15,10.69,17.87-1.83,1.47-10.54Z" fill="#231f20"></path><path d="M142.52,107.3s5.6-9.79,13.33-10.62,13.14.67,16.51,2.74,5.45,8.92,5.45,8.92-9.2.65-15.58,1.59S142.52,107.3,142.52,107.3Z" fill="#10b981"></path><path d="M159.74,110.59c-6.79,0-16.87-2.67-17.35-2.8a.5.5,0,0,1-.33-.29.49.49,0,0,1,0-.44c.23-.41,5.81-10,13.7-10.88,8.6-.92,13.9,1,16.84,2.81,3.5,2.14,5.57,8.91,5.66,9.2a.5.5,0,0,1-.45.64c-.09,0-9.25.67-15.54,1.6A18.4,18.4,0,0,1,159.74,110.59ZM143.3,107c2.74.69,13.44,3.24,18.86,2.45s12.77-1.39,15-1.56c-.58-1.68-2.42-6.44-5-8-2.8-1.72-7.88-3.57-16.2-2.67C149.58,97.86,144.62,104.92,143.3,107Z" fill="#231f20"></path><path d="M148,108.57s3.76-8.21,9-9.15,10.51-.75,12.2,1.69,2.6,7.73,2.6,7.73S162.23,112.28,148,108.57Z" fill="#fff"></path><path d="M161.06,110.8a52.56,52.56,0,0,1-13.22-1.75.46.46,0,0,1-.33-.26.54.54,0,0,1,0-.43c.16-.34,3.92-8.46,9.38-9.43,6.34-1.13,11.09-.43,12.69,1.89,1.74,2.51,2.65,7.72,2.68,7.94a.49.49,0,0,1-.32.55A34.62,34.62,0,0,1,161.06,110.8Zm-12.38-2.56c12,3,20.6.83,22.52.26-.26-1.29-1.1-5.18-2.44-7.11s-5.84-2.52-11.7-1.48C152.88,100.66,149.61,106.43,148.68,108.24Z" fill="#231f20"></path><path d="M130.14,97.18a.5.5,0,0,1-.27-.08.51.51,0,0,1-.16-.69c.28-.44,7-10.88,17.29-13a.51.51,0,0,1,.59.39.5.5,0,0,1-.39.59c-9.89,2-16.57,12.42-16.64,12.53A.51.51,0,0,1,130.14,97.18Z" fill="#d1d3d4"></path><path d="M146.32,79.66l-.17,0-9.48-3.39a.5.5,0,0,1,.34-.94l9.48,3.39a.5.5,0,0,1-.17,1Z" fill="#231f20"></path><path d="M136.28,97.18a.51.51,0,0,1-.31-.11.49.49,0,0,1-.08-.7c4.17-5.32,14.37-9.58,15.47-8.75a.5.5,0,0,1,.1.7.51.51,0,0,1-.59.16h0c-1.31,0-10.19,3.43-14.18,8.51A.51.51,0,0,1,136.28,97.18Z" fill="#d1d3d4"></path><path d="M141.58,98a.51.51,0,0,1-.42-.77c2.79-4.44,12.53-5.49,13-5.54a.49.49,0,0,1,.54.45.5.5,0,0,1-.44.55c-.1,0-9.68,1-12.21,5.07A.47.47,0,0,1,141.58,98Z" fill="#d1d3d4"></path><path d="M130.73,109.92a1.15,1.15,0,0,0-.52.31.82.82,0,0,0,.32,1.13,2.09,2.09,0,0,0,1.29.15c1.35-.17,4.35-.8,4.88-2.19C135.42,108.22,132.13,109.41,130.73,109.92Z" fill="#d1d3d4"></path><path d="M164.26,115.19a1.72,1.72,0,0,0-.53.73,1.08,1.08,0,0,0,.81,1.19,2.53,2.53,0,0,0,1.55-.16c1-.39,4.23-2.07,2.87-3.37S165.18,114.37,164.26,115.19Z" fill="#d1d3d4"></path><path d="M202.54,94.83a2.07,2.07,0,0,0,1.15-.5,1,1,0,0,0,.19-1.16,1.33,1.33,0,0,0-.83-.44c-.88-.23-6.55-.83-5.87.81C197.64,94.68,201.55,95,202.54,94.83Z" fill="#d1d3d4"></path><path d="M192.46,81.62c.71-.29,1.5-.8,1.45-1.56a1.27,1.27,0,0,0-.82-1,2.72,2.72,0,0,0-1.39-.11,6.48,6.48,0,0,0-5.11,3.69C188.28,83.25,190.88,82.26,192.46,81.62Z" fill="#d1d3d4"></path><path d="M173.92,72.29a.89.89,0,0,0,.19-.83c-.13-.29-.52-.36-.85-.35-1.81,0-4,1.46-4.13,3.38a.83.83,0,0,0,.34.86.67.67,0,0,0,.42,0C171.43,75.15,173.09,73.51,173.92,72.29Z" fill="#d1d3d4"></path><path d="M180.58,113.31c-.36.39-.71,1-.43,1.4a1,1,0,0,0,.63.38,3,3,0,0,0,2.58-.82c.65-.6,2.78-3.27,1.55-3.9S181.22,112.61,180.58,113.31Z" fill="#d1d3d4"></path><path d="M125.57,81.18a3.16,3.16,0,0,0-2,1,1.34,1.34,0,0,0,.22,2,1.75,1.75,0,0,0,1,.12,9.75,9.75,0,0,0,2.36-.66c.76-.27,3.78-.86,3.23-1.9S126.42,81,125.57,81.18Z" fill="#d1d3d4"></path><path d="M122.45,98.87c1.7-.71.5-1.8-.76-2a5.38,5.38,0,0,0-1.79,0,14.33,14.33,0,0,0-1.84.39c-2,.57-.2,2.15,1,2.23A8.14,8.14,0,0,0,122.45,98.87Z" fill="#d1d3d4"></path><path d="M152.19,114.69c.62,0,1.36.24,1.52.84a1.07,1.07,0,0,1-.62,1.15,2.87,2.87,0,0,1-1.39.21c-1.7,0-4-.32-5.17-1.75C147.53,114.11,150.81,114.56,152.19,114.69Z" fill="#d1d3d4"></path><path d="M198.17,103.41c.94-.31,5.32-1.33,2.59-2.36a8,8,0,0,0-5.52.41,3.13,3.13,0,0,0-1.21.8c-.53.65-.53,1.65.43,1.78A8.65,8.65,0,0,0,198.17,103.41Z" fill="#d1d3d4"></path><path d="M69.65,163c-.21,3.78-3.29,6.8-4.11,10.49s.74,7.48,2.26,11c1.72,4,3.7,8.18,7.51,10.21,4.37,2.34,9.73,1,14.46-.47a22.38,22.38,0,0,0,6.84-3.08,8,8,0,0,0,3.5-6.35c0-2.18-1.28-4.15-1.74-6.29-1.63-7.72,3.55-14.22.71-22.39-1.4-4-3.28-9-7.94-9.94a19.79,19.79,0,0,0-7.61.46l-5.48,1.06a19.45,19.45,0,0,0-6,1.82C66.68,152.48,69.93,158,69.65,163Z" fill="#10b981"></path><path d="M80.81,196.43a11.88,11.88,0,0,1-5.74-1.33c-3.81-2-5.83-6.1-7.73-10.45-1.34-3.06-3.17-7.26-2.28-11.27a18.67,18.67,0,0,1,2-4.78A13.69,13.69,0,0,0,69.15,163a22.2,22.2,0,0,0-.35-4.35c-.53-3.59-1.08-7.29,3-9.58a20,20,0,0,1,6.1-1.87l5.48-1.06c2.42-.46,5.17-1,7.81-.46,5.1,1,7,6.59,8.31,10.27,1.58,4.55.74,8.61-.07,12.53-.69,3.33-1.35,6.48-.62,9.92a18.32,18.32,0,0,0,.78,2.45,12.19,12.19,0,0,1,1,3.93,8.46,8.46,0,0,1-3.7,6.77,22.65,22.65,0,0,1-7,3.15A31.17,31.17,0,0,1,80.81,196.43Zm8-50a28.66,28.66,0,0,0-5.24.66l-5.48,1.06a19.46,19.46,0,0,0-5.81,1.76c-3.52,2-3.07,5-2.54,8.56a23.25,23.25,0,0,1,.36,4.56h0a14.66,14.66,0,0,1-2.18,6A18.21,18.21,0,0,0,66,173.6c-.76,3.41.56,6.84,2.23,10.65,1.82,4.18,3.76,8.09,7.28,10,4.07,2.18,9.18,1,14.08-.51a21.84,21.84,0,0,0,6.7-3,7.44,7.44,0,0,0,3.29-5.94,11.48,11.48,0,0,0-.91-3.61,18.46,18.46,0,0,1-.82-2.58c-.77-3.65-.06-7.05.62-10.33.79-3.79,1.6-7.71.11-12s-3.38-8.76-7.57-9.62A11.34,11.34,0,0,0,88.86,146.43ZM69.65,163h0Z" fill="#231f20"></path><path d="M67.74,168.93l-.13,0a.51.51,0,0,1-.35-.62c.08-.27,1.93-6.57,7-8.71a.51.51,0,0,1,.66.27.49.49,0,0,1-.27.65c-4.59,1.95-6.38,8-6.4,8.07A.49.49,0,0,1,67.74,168.93Z" fill="#231f20"></path><path d="M82.82,190a.46.46,0,0,1-.23-.06.5.5,0,0,1-.21-.67,16.23,16.23,0,0,1,6.4-6.61c.52-.29,1.06-.56,1.6-.82a14.5,14.5,0,0,0,3-1.79,10.41,10.41,0,0,0,2.34-3,21.11,21.11,0,0,0,2.73-9.51.5.5,0,0,1,1,0,22,22,0,0,1-2.86,10,11.55,11.55,0,0,1-2.56,3.25,15.64,15.64,0,0,1-3.23,1.92c-.52.26-1,.52-1.56.8a15.16,15.16,0,0,0-6,6.2A.51.51,0,0,1,82.82,190Z" fill="#231f20"></path><circle cx="242.15" cy="174.55" r="7.18" fill="#fff"></circle><path d="M242.15,182.23a7.68,7.68,0,1,1,7.68-7.68A7.69,7.69,0,0,1,242.15,182.23Zm0-14.36a6.68,6.68,0,1,0,6.68,6.68A6.69,6.69,0,0,0,242.15,167.87Z" fill="#231f20"></path><circle cx="256.41" cy="177.46" r="7.18" fill="#fff"></circle><path d="M256.41,185.14a7.68,7.68,0,1,1,7.68-7.68A7.69,7.69,0,0,1,256.41,185.14Zm0-14.36a6.68,6.68,0,1,0,6.68,6.68A6.69,6.69,0,0,0,256.41,170.78Z" fill="#231f20"></path><circle cx="230.23" cy="192.14" r="7.18" fill="#fff"></circle><path d="M230.23,199.82a7.68,7.68,0,1,1,7.68-7.68A7.68,7.68,0,0,1,230.23,199.82Zm0-14.36a6.68,6.68,0,1,0,6.68,6.68A6.69,6.69,0,0,0,230.23,185.46Z" fill="#231f20"></path><circle cx="249.33" cy="184.64" r="7.18" fill="#fff"></circle><path d="M249.33,192.32a7.68,7.68,0,1,1,7.68-7.68A7.69,7.69,0,0,1,249.33,192.32Zm0-14.36a6.68,6.68,0,1,0,6.68,6.68A6.68,6.68,0,0,0,249.33,178Z" fill="#231f20"></path><circle cx="237.41" cy="181.73" r="7.18" fill="#fff"></circle><path d="M237.41,189.42a7.69,7.69,0,1,1,7.68-7.69A7.7,7.7,0,0,1,237.41,189.42Zm0-14.37a6.69,6.69,0,1,0,6.68,6.68A6.69,6.69,0,0,0,237.41,175.05Z" fill="#231f20"></path><circle cx="262.16" cy="181.73" r="7.18" fill="#fff"></circle><path d="M262.16,189.42a7.69,7.69,0,1,1,7.68-7.69A7.7,7.7,0,0,1,262.16,189.42Zm0-14.37a6.69,6.69,0,1,0,6.68,6.68A6.69,6.69,0,0,0,262.16,175.05Z" fill="#231f20"></path><circle cx="250.17" cy="170.8" r="7.18" fill="#fff"></circle><path d="M250.17,178.48a7.68,7.68,0,1,1,7.68-7.68A7.69,7.69,0,0,1,250.17,178.48Zm0-14.36a6.68,6.68,0,1,0,6.68,6.68A6.69,6.69,0,0,0,250.17,164.12Z" fill="#231f20"></path><circle cx="271.34" cy="192.14" r="7.18" fill="#fff"></circle><path d="M271.34,199.82a7.68,7.68,0,1,1,7.68-7.68A7.68,7.68,0,0,1,271.34,199.82Zm0-14.36a6.68,6.68,0,1,0,6.68,6.68A6.69,6.69,0,0,0,271.34,185.46Z" fill="#231f20"></path><circle cx="242.99" cy="194.45" r="7.18" fill="#fff"></circle><path d="M243,202.13a7.68,7.68,0,1,1,7.68-7.68A7.68,7.68,0,0,1,243,202.13Zm0-14.36a6.68,6.68,0,1,0,6.68,6.68A6.69,6.69,0,0,0,243,187.77Z" fill="#231f20"></path><circle cx="256.51" cy="193.3" r="7.18" fill="#fff"></circle><path d="M256.51,201a7.68,7.68,0,1,1,7.68-7.68A7.69,7.69,0,0,1,256.51,201Zm0-14.36a6.68,6.68,0,1,0,6.68,6.68A6.68,6.68,0,0,0,256.51,186.62Z" fill="#231f20"></path></g></svg>